# xmcd CD database file
#
# Track frame offsets:
#	150
#	12028
#	23661
#	35073
#	48547
#	63742
#	79186
#	92655
#	102636
#	116826
#	135144
#	143579
#	155554
#	170329
#	180216
#	198310
#
# Disc length: 2899 seconds
#
# Revision: 0
# Processed by: cddbd v1.5.1PL2 Copyright (c) Steve Scherf et al.
# Submitted via: CDex 1.51
#
DISCID=cd0b5110
DTITLE=Jim Sundquist and his Fendermen - The Big Requests
DYEAR=1900
DGENRE=Country
TTITLE0=Muleskinner Blues
TTITLE1=Ring Of Fire
TTITLE2=Battle Of New Orleans
TTITLE3=There Is A Time To Wander
TTITLE4=Auctioneer
TTITLE5=Wolverton Mountain
TTITLE6=Rockpile
TTITLE7=Walkin' After Midnight
TTITLE8=Kawliga
TTITLE9=She Thinks I Still Care
TTITLE10=I'm My Our Grandpa
TTITLE11=The Bottle Let Me Down
TTITLE12=Billy Boy
TTITLE13=Home In Louisiana
TTITLE14=Hank Williams Medley
TTITLE15=T for Texas
EXTD=
EXTT0=
EXTT1=
EXTT2=
EXTT3=
EXTT4=
EXTT5=
EXTT6=
EXTT7=
EXTT8=
EXTT9=
EXTT10=
EXTT11=
EXTT12=
EXTT13=
EXTT14=
EXTT15=
PLAYORDER=
